<?xml version="1.0" encoding="UTF-8"?>
<svg xmlns="http://www.w3.org/2000/svg" xmlns:xlink="http://www.w3.org/1999/xlink" viewBox="0 0 24 24" width="24px" height="24px">
<g id="surface140801561">
<path style=" stroke:none;fill-rule:nonzero;fill:rgb(100%,100%,100%);fill-opacity:1;" d="M 17.28125 1.921875 L 6.71875 1.921875 C 4.074219 1.921875 1.921875 4.074219 1.921875 6.71875 L 1.921875 17.28125 C 1.921875 19.925781 4.074219 22.078125 6.71875 22.078125 L 17.28125 22.078125 C 19.925781 22.078125 22.078125 19.925781 22.078125 17.28125 L 22.078125 6.71875 C 22.078125 4.074219 19.925781 1.921875 17.28125 1.921875 Z M 12 17.242188 C 11.453125 17.242188 10.925781 17.183594 10.417969 17.078125 C 9.515625 17.675781 8.316406 18.089844 7.199219 18.289062 C 7.761719 17.738281 8.347656 17.125 8.648438 16.472656 C 6.636719 15.480469 5.28125 13.628906 5.28125 11.5 C 5.28125 8.332031 8.289062 5.761719 12 5.761719 C 15.710938 5.761719 18.71875 8.332031 18.71875 11.5 C 18.71875 14.671875 15.710938 17.242188 12 17.242188 Z M 12 17.242188 "/>
</g>
</svg>
